name rise49.25peak52.1432fall72.8391.mot
datacolumns 19
datarows 35
range 13.80494700000000 13.86161400000000
endheader
time	ground_force1_vx	ground_force1_vy	ground_force1_vz	ground_force1_px	ground_force1_py	ground_force1_pz	ground_force2_vx	ground_force2_vy	ground_force2_vz	ground_force2_px	ground_force2_py	ground_force2_pz	ground_torque1_x	ground_torque1_y	ground_torque1_z	ground_torque2_x	ground_torque2_y	ground_torque2_z	
13.80494700000000	-36.12760700000000	791.69509300000004	48.36121300000000	0.11394000000000	0.00000000000000	0.10112800000000	-5.70875200000000	21.82976300000000	3.76819900000000	0.00000000000000	0.00000000000000	0.00000000000000	0.00000000000000	19.41351400000000	0.00000000000000	0.00000000000000	0.96585100000000	0.00000000000000	
13.80661700000000	-36.48759400000000	790.08282899999995	48.19494500000000	0.11329500000000	0.00000000000000	0.10101800000000	-6.91724900000000	27.79143700000000	4.64228400000000	0.31210600000000	0.00000000000000	-0.07226800000000	0.00000000000000	19.31280700000000	0.00000000000000	0.00000000000000	2.14701600000000	0.00000000000000	
13.80827600000000	-36.86895600000000	788.39342299999998	48.01573300000000	0.11265600000000	0.00000000000000	0.10090500000000	-8.09924200000000	34.11968500000000	5.52499700000000	0.31913800000000	0.00000000000000	-0.07235100000000	0.00000000000000	19.21449300000000	0.00000000000000	0.00000000000000	2.61255000000000	0.00000000000000	
13.80994600000000	-37.27234100000000	786.62547099999995	47.82344000000000	0.11202200000000	0.00000000000000	0.10079000000000	-9.21110500000000	40.68445400000000	6.38933200000000	0.32541500000000	0.00000000000000	-0.07245100000000	0.00000000000000	19.11871600000000	0.00000000000000	0.00000000000000	3.08281700000000	0.00000000000000	
13.81160800000000	-37.69832600000000	784.77748199999996	47.61794800000000	0.11139300000000	0.00000000000000	0.10067200000000	-10.21344100000000	47.35906000000000	7.21027100000000	0.33104200000000	0.00000000000000	-0.07256600000000	0.00000000000000	19.02560600000000	0.00000000000000	0.00000000000000	3.54458500000000	0.00000000000000	
13.81327500000000	-38.14741000000000	782.84788300000002	47.39915600000000	0.11076700000000	0.00000000000000	0.10055100000000	-11.07368400000000	54.02963400000000	7.96647900000000	0.33610400000000	0.00000000000000	-0.07269500000000	0.00000000000000	18.93528200000000	0.00000000000000	0.00000000000000	3.98601800000000	0.00000000000000	
13.81495100000000	-38.62001600000000	780.83500800000002	47.16698400000000	0.11014500000000	0.00000000000000	0.10042800000000	-11.76786100000000	60.60238000000000	8.64149100000000	0.34067300000000	0.00000000000000	-0.07283600000000	0.00000000000000	18.84784600000000	0.00000000000000	0.00000000000000	4.39740800000000	0.00000000000000	
13.81662300000000	-39.11647800000000	778.73710700000004	46.92136800000000	0.10952400000000	0.00000000000000	0.10030300000000	-12.28140500000000	67.00815700000000	9.22434100000000	0.34480500000000	0.00000000000000	-0.07298700000000	0.00000000000000	18.76338600000000	0.00000000000000	0.00000000000000	4.77162700000000	0.00000000000000	
13.81827700000000	-39.63704300000000	776.55233699999997	46.66226500000000	0.10890500000000	0.00000000000000	0.10017500000000	-12.60908900000000	73.20432500000000	9.70963800000000	0.34855100000000	0.00000000000000	-0.07314800000000	0.00000000000000	18.68197600000000	0.00000000000000	0.00000000000000	5.10429600000000	0.00000000000000	
13.81994500000000	-40.18186600000000	774.27876900000001	46.38964900000000	0.10828700000000	0.00000000000000	0.10004600000000	-12.75420200000000	79.17409800000000	10.09717400000000	0.35195100000000	0.00000000000000	-0.07331700000000	0.00000000000000	18.60367400000000	0.00000000000000	0.00000000000000	5.39369500000000	0.00000000000000	
13.82161700000000	-40.75100400000000	771.91438500000004	46.10351300000000	0.10766800000000	0.00000000000000	0.09991400000000	-12.72716800000000	84.92389200000000	10.39116900000000	0.35504200000000	0.00000000000000	-0.07349400000000	0.00000000000000	18.52852200000000	0.00000000000000	0.00000000000000	5.64046700000000	0.00000000000000	
13.82327500000000	-41.34441300000000	769.45708300000001	45.80386800000000	0.10704900000000	0.00000000000000	0.09978000000000	-12.54381500000000	90.47920900000000	10.59927800000000	0.35785400000000	0.00000000000000	-0.07367900000000	0.00000000000000	18.45654600000000	0.00000000000000	0.00000000000000	5.84716800000000	0.00000000000000	
13.82495000000000	-41.96194800000000	766.90467799999999	45.49074200000000	0.10642800000000	0.00000000000000	0.09964500000000	-12.22349400000000	95.87967100000000	10.73148900000000	0.36041300000000	0.00000000000000	-0.07387000000000	0.00000000000000	18.38775900000000	0.00000000000000	0.00000000000000	6.01774000000000	0.00000000000000	
13.82660900000000	-42.60335400000000	764.25490800000000	45.16418200000000	0.10580400000000	0.00000000000000	0.09950700000000	-11.78723900000000	101.17376400000001	10.79901300000000	0.36274300000000	0.00000000000000	-0.07406600000000	0.00000000000000	18.32215300000000	0.00000000000000	0.00000000000000	6.15695400000000	0.00000000000000	
13.82827500000000	-43.26827000000000	761.50543400000004	44.82425200000000	0.10517800000000	0.00000000000000	0.09936800000000	-11.25610100000000	106.41374999999999	10.81327100000000	0.36486400000000	0.00000000000000	-0.07426800000000	0.00000000000000	18.25970600000000	0.00000000000000	0.00000000000000	6.26989000000000	0.00000000000000	
13.82995000000000	-43.95622200000000	758.65384900000004	44.47103300000000	0.10454800000000	0.00000000000000	0.09922800000000	-10.64976100000000	111.65115400000001	10.78502600000000	0.36679300000000	0.00000000000000	-0.07447500000000	0.00000000000000	18.20038100000000	0.00000000000000	0.00000000000000	6.36147000000000	0.00000000000000	
13.83161400000000	-44.66662000000000	755.69768299999998	44.10462400000000	0.10391300000000	0.00000000000000	0.09908600000000	-9.98548700000000	116.93305200000000	10.72372400000000	0.36854800000000	0.00000000000000	-0.07468600000000	0.00000000000000	18.14412100000000	0.00000000000000	0.00000000000000	6.43609600000000	0.00000000000000	
13.83328500000000	-45.39876200000000	752.63440800000001	43.72513900000000	0.10327300000000	0.00000000000000	0.09894300000000	-9.27744600000000	122.29933400000000	10.63703600000000	0.37014200000000	0.00000000000000	-0.07490000000000	0.00000000000000	18.09085400000000	0.00000000000000	0.00000000000000	6.49738500000000	0.00000000000000	
13.83494100000000	-46.15182800000000	749.46144700000002	43.33271000000000	0.10262700000000	0.00000000000000	0.09879800000000	-8.53637800000000	127.78095300000000	10.53062100000000	0.37158700000000	0.00000000000000	-0.07511800000000	0.00000000000000	18.04049100000000	0.00000000000000	0.00000000000000	6.54801900000000	0.00000000000000	
13.83661400000000	-46.92487900000000	746.17618400000003	42.92748400000000	0.10197500000000	0.00000000000000	0.09865300000000	-7.76956800000000	133.39913700000000	10.40807600000000	0.37289600000000	0.00000000000000	-0.07534000000000	0.00000000000000	17.99292600000000	0.00000000000000	0.00000000000000	6.58968600000000	0.00000000000000	
13.83827900000000	-47.71685900000000	742.77596600000004	42.50962300000000	0.10131600000000	0.00000000000000	0.09850600000000	-6.98109000000000	139.16544300000001	10.27104900000000	0.37407800000000	0.00000000000000	-0.07556400000000	0.00000000000000	17.94803400000000	0.00000000000000	0.00000000000000	6.62312100000000	0.00000000000000	
13.83995100000000	-48.52659400000000	739.25811999999996	42.07930500000000	0.10065000000000	0.00000000000000	0.09835900000000	-6.17223200000000	145.08248599999999	10.11947400000000	0.37514300000000	0.00000000000000	-0.07579000000000	0.00000000000000	17.90567800000000	0.00000000000000	0.00000000000000	6.64820000000000	0.00000000000000	
13.84161100000000	-49.35279100000000	735.61995800000000	41.63672400000000	0.09997600000000	0.00000000000000	0.09821100000000	-5.34205500000000	151.14517799999999	9.95189500000000	0.37610000000000	0.00000000000000	-0.07601800000000	0.00000000000000	17.86569900000000	0.00000000000000	0.00000000000000	6.66409800000000	0.00000000000000	
13.84328200000000	-50.19404100000000	731.85878900000000	41.18208500000000	0.09929400000000	0.00000000000000	0.09806300000000	-4.48800900000000	157.34228300000001	9.76582700000000	0.37695600000000	0.00000000000000	-0.07624800000000	0.00000000000000	17.82792400000000	0.00000000000000	0.00000000000000	6.66945800000000	0.00000000000000	
13.84494700000000	-51.04881900000000	727.97192900000005	40.71561200000000	0.09860300000000	0.00000000000000	0.09791400000000	-3.60655100000000	163.65812099999999	9.55813400000000	0.37771800000000	0.00000000000000	-0.07648000000000	0.00000000000000	17.79216300000000	0.00000000000000	0.00000000000000	6.66258500000000	0.00000000000000	
13.84661500000000	-51.91548800000000	723.95671300000004	40.23753700000000	0.09790300000000	0.00000000000000	0.09776400000000	-2.69372500000000	170.07425200000000	9.32538000000000	0.37839300000000	0.00000000000000	-0.07671200000000	0.00000000000000	17.75821100000000	0.00000000000000	0.00000000000000	6.64162000000000	0.00000000000000	
13.84827800000000	-52.79229900000000	719.81050700000003	39.74810900000000	0.09719500000000	0.00000000000000	0.09761500000000	-1.74566100000000	176.57104600000000	9.06414500000000	0.37898500000000	0.00000000000000	-0.07694500000000	0.00000000000000	17.72584600000000	0.00000000000000	0.00000000000000	6.60470400000000	0.00000000000000	
13.84994700000000	-53.67739600000000	715.53071999999997	39.24758800000000	0.09647700000000	0.00000000000000	0.09746500000000	-0.75896800000000	183.12901800000000	8.77128200000000	0.37950200000000	0.00000000000000	-0.07717900000000	0.00000000000000	17.69483100000000	0.00000000000000	0.00000000000000	6.55010900000000	0.00000000000000	
13.85161700000000	-54.56881700000000	711.11481400000002	38.73624600000000	0.09574900000000	0.00000000000000	0.09731500000000	0.26896600000000	189.72990300000001	8.44410400000000	0.37994700000000	0.00000000000000	-0.07741300000000	0.00000000000000	17.66491400000000	0.00000000000000	0.00000000000000	6.47634200000000	0.00000000000000	
13.85327900000000	-55.46450300000000	706.56032300000004	38.21436700000000	0.09501200000000	0.00000000000000	0.09716500000000	1.33980700000000	196.35741999999999	8.08051600000000	0.38032500000000	0.00000000000000	-0.07764800000000	0.00000000000000	17.63583000000000	0.00000000000000	0.00000000000000	6.38221100000000	0.00000000000000	
13.85494400000000	-56.36229600000000	701.86486000000002	37.68224800000000	0.09426500000000	0.00000000000000	0.09701600000000	2.45418800000000	202.99775199999999	7.67907500000000	0.38063900000000	0.00000000000000	-0.07788200000000	0.00000000000000	17.60729800000000	0.00000000000000	0.00000000000000	6.26686400000000	0.00000000000000	
13.85661300000000	-57.25995200000000	697.02613699999995	37.14019200000000	0.09350900000000	0.00000000000000	0.09686600000000	3.61173000000000	209.63974200000001	7.23899700000000	0.38089500000000	0.00000000000000	-0.07811500000000	0.00000000000000	17.57902600000000	0.00000000000000	0.00000000000000	6.12979300000000	0.00000000000000	
13.85827500000000	-58.15513900000000	692.04197499999998	36.58851800000000	0.09274200000000	0.00000000000000	0.09671700000000	4.81111700000000	216.27487300000001	6.76012800000000	0.38109500000000	0.00000000000000	-0.07834800000000	0.00000000000000	17.55070900000000	0.00000000000000	0.00000000000000	5.97082400000000	0.00000000000000	
13.85994900000000	-59.04544700000000	686.91032199999995	36.02755100000000	0.09196600000000	0.00000000000000	0.09656900000000	6.05023200000000	222.89705799999999	6.24287000000000	0.38124200000000	0.00000000000000	-0.07857900000000	0.00000000000000	17.52203200000000	0.00000000000000	0.00000000000000	5.79008000000000	0.00000000000000	
13.86161400000000	-59.92839500000000	681.62926900000002	35.45762700000000	0.09118000000000	0.00000000000000	0.09642000000000	7.32631700000000	229.50230199999999	5.68809600000000	0.38133900000000	0.00000000000000	-0.07881000000000	0.00000000000000	17.49266600000000	0.00000000000000	0.00000000000000	5.58794100000000	0.00000000000000	
